<svg enable-background="new 0 0 52.2 44.3" viewBox="0 0 52.2 44.3" xmlns="http://www.w3.org/2000/svg"><g fill="#065adc"><path d="m42.8 22.1-3.8 2.7s-4 3.4-8.4 1.1c-2.8-1.5-5.6-2.9-8.6-4 0 0-3.2-1.1-.3-3s8.1-5.4 8.1-5.4c1.9-1.1 4-1.5 6.2-1 2.6.8 11.6 2.7 11.6 2.7s3.2 1.6.4 3.6c-2.7 1.8-5.2 3.3-5.2 3.3z" opacity=".67"/><path d="m24.9 37.6c-.1 1.1.9 1.8 2.4 1.6 1.4-.2 2.6-1.2 2.7-2.3s-1.1-1.7-2.4-1.5c-1.5.2-2.5 1.2-2.7 2.2z" opacity=".62"/><path d="m29.9 40.9c0 1.1 1.1 1.9 2.4 1.7s2.5-1.2 2.5-2.3-1.2-1.8-2.5-1.6-2.4 1.2-2.4 2.2z" opacity=".62"/><path d="m36.9 36.7c.2 1.2 1.7 2 3.5 1.8 1.9-.3 3.1-1.4 2.9-2.6-.3-1.2-1.8-1.9-3.5-1.7-1.8.2-3 1.2-2.9 2.5z" opacity=".62"/><path d="m21 34.8c-.2.9.8 1.6 2.1 1.4s2.5-1.1 2.6-2.1-.8-1.5-2.1-1.3c-1.2.2-2.3.9-2.6 2z" opacity=".62"/><path d="m17.4 32.3c-.2.8.6 1.4 1.9 1.3 1.3-.2 2.4-1 2.5-1.9.2-.9-.7-1.3-1.9-1.2s-2.1.8-2.5 1.8z" opacity=".62"/><path d="m14.1 30.3c-.3.8.5 1.3 1.6 1.1 1.1-.1 1.9-.8 2.4-1.8.2-.8-.6-1.3-1.7-1.1-1 .3-1.9.9-2.3 1.8z" opacity=".62"/><path d="m11.4 28.4c-.2.8.5 1.1 1.5.8 1-.2 1.8-.8 2.2-1.8.2-.7-.6-1.1-1.6-.8-.8.2-1.7.8-2.1 1.8z" opacity=".62"/><path d="m31.8 33.3c0 1 1.2 1.7 2.7 1.5s2.7-1.2 2.6-2.3-1.3-1.6-2.7-1.4-2.5 1.3-2.6 2.2z" opacity=".62"/><path d="m37.1 29.4c0 1 1.2 1.7 2.7 1.5s2.7-1.2 2.6-2.3-1.3-1.6-2.7-1.3c-1.5.3-2.6 1.2-2.6 2.1z" opacity=".62"/><path d="m26.9 30.8c-.1.9.9 1.5 2.4 1.3 1.4-.3 2.5-1.1 2.5-2s-1.1-1.4-2.4-1.3c-1.2.1-2.4 1.2-2.5 2z" opacity=".62"/><path d="m22.9 28.6c-.1.8.8 1.3 2 1.2 1.3-.2 2.4-1 2.4-1.9.1-.8-.8-1.3-2.1-1.1-1.2.2-2.3 1-2.3 1.8z" opacity=".62"/><path d="m19.1 26.7c-.2.8.7 1.3 1.9 1s2.3-1 2.4-1.8-.8-1.2-1.9-.9-2.1 1.1-2.4 1.7z" opacity=".62"/><path d="m16.4 24.9c-.2.7.5 1.1 1.7.9s2.1-.9 2.3-1.6-.6-1.1-1.7-.8c-1 .1-1.8.7-2.3 1.5z" opacity=".62"/><path d="m13.1 23.8c-.3.6.4 1 1.4.8.9-.1 1.7-.7 2.1-1.4.2-.6-.5-.9-1.4-.8-.9.2-1.7.6-2.1 1.4z" opacity=".61"/><path d="m10.5 22.4c-.3.6.3.9 1.3.8.8-.1 1.6-.6 2-1.3.2-.6-.4-.8-1.3-.7-.8 0-1.5.5-2 1.2z" opacity=".62"/><path d="m15 19.8c-.2.5.4.8 1.3.7.8-.1 1.5-.6 1.9-1.3.2-.5-.5-.8-1.3-.6-.7.1-1.5.5-1.9 1.2z" opacity=".62"/><path d="m11.9 18.8c-.2.5.3.8 1.2.6.8-.1 1.5-.6 1.9-1.3.2-.5-.4-.8-1.3-.6-.7.3-1.4.7-1.8 1.3z" opacity=".62"/><path d="m8.1 21.3c-.2.4.3.7.9.6.7-.1 1.3-.5 1.7-1.1.2-.4-.3-.7-1-.5-.6 0-1.2.5-1.6 1z" opacity=".62"/><path d="m9.2 26.5c-.3.5.3.8 1.1.8.8-.1 1.4-.6 1.8-1.3.2-.5-.3-.8-1.1-.7s-1.5.6-1.8 1.2z" opacity=".62"/><path d="m7.6 31.2c-.3.5.3.8.9.8.8-.1 1.3-.5 1.7-1.2.2-.5-.3-.8-1-.8-.7.2-1.3.6-1.6 1.2z" opacity=".62"/><path d="m4.7 29.2c-.3.5.2.8.8.7.7-.1 1.3-.5 1.6-1.1.2-.5-.1-.8-.8-.7-.6.2-1.2.6-1.6 1.1z" opacity=".62"/><path d="m7.2 24.9c-.2.4.1.7.8.6.6-.1 1.2-.4 1.5-1 .2-.4-.3-.7-.8-.5-.7 0-1.2.4-1.5.9z" opacity=".62"/><path d="m10.3 33.3c-.2.6.3 1 1.1.8.8-.1 1.4-.6 1.8-1.3.2-.6-.3-.9-1.1-.8s-1.5.6-1.8 1.3z" opacity=".62"/><path d="m13.5 35.8c-.2.7.3 1.1 1.2 1 .8-.1 1.5-.6 1.9-1.4.2-.7-.4-1-1.3-.9-.8 0-1.5.6-1.8 1.3z" opacity=".62"/><path d="m16.9 38.5c-.2.7.4 1.2 1.3 1.1.8-.1 1.6-.7 1.9-1.5.1-.7-.5-1.2-1.4-1-.8 0-1.5.6-1.8 1.4z" opacity=".62"/><path d="m11.6 43c-.1.4.3.8.8.8.5-.1 1-.4 1.2-.9.1-.4-.3-.8-.8-.7-.6 0-1 .3-1.2.8z" opacity=".62"/><path d="m8.1 39.7c-.2.6.3.9.9.8.7-.1 1.3-.5 1.6-1.2.2-.6-.3-.9-.9-.8-.8.1-1.3.6-1.6 1.2z" opacity=".62"/><path d="m5.9 37c-.2.4.1.7.5.6.5-.1.9-.3 1.1-.8.2-.3-.2-.6-.6-.6-.4.1-.8.3-1 .8z" opacity=".62"/><path d="m3.2 34.4c-.2.4.1.6.5.5s.8-.3 1-.8c.2-.3-.1-.6-.5-.5-.3.2-.7.5-1 .8z" opacity=".62"/><path d="m20.8 41.9c-.1.8.6 1.3 1.6 1.3.9-.1 1.8-.8 2-1.7.1-.8-.7-1.3-1.6-1.2-1 0-1.8.7-2 1.6z" opacity=".62"/><path d="m43 26.2c-.2.8.6 1.3 1.6 1.3.9-.1 1.8-.8 2-1.7.1-.8-.7-1.3-1.6-1.2-1 0-1.7.6-2 1.6z" opacity=".62"/><path d="m40.2 16.8-3.8 2.7s-4 3.4-8.4 1.1c-2.8-1.5-5.6-2.9-8.6-4.1 0 0-3.2-1.1-.3-3s8.1-5.4 8.1-5.4c1.9-1.1 4-1.5 6.2-1 2.6.8 11.6 2.7 11.6 2.7s3.2 1.6.4 3.6c-2.7 1.8-5.2 3.4-5.2 3.4z" opacity=".62"/><path d="m37.2 10.5-3.8 2.7s-4 3.4-8.4 1.1c-2.8-1.5-5.6-2.9-8.6-4.1 0 0-3.2-1.1-.3-3s8.1-5.4 8.1-5.4c1.9-1.1 4-1.4 6.2-1 2.6.8 11.6 2.7 11.6 2.7s3 1.5.3 3.5-5.1 3.5-5.1 3.5z" opacity=".35"/></g></svg>